# xmcd CD database file
# Copyright (C) 1996 Ti Kan
#
# Track frame offsets:
# 	182
# 	12117
# 	24552
# 	36790
# 	47757
# 	58642
# 	76522
# 	88137
# 	101595
# 	115207
#
# Disc length: 1696 seconds
#
# Revision: 1
# Processed by: cddbd v1.4PL0 Copyright (c) Steve Scherf et al.
# Submitted via: DiscPlay 3.4.1
#
DISCID=6f069e0a
DTITLE=Sam and Dave - Greatest Songs
DYEAR=1995
DGENRE=R&B
TTITLE0=Soul Man
TTITLE1=I Thank You
TTITLE2=Hold On! I'm A Comin'
TTITLE3=Soul Sister, Brown Sugar
TTITLE4=Sweet Soul Music
TTITLE5=Mustang Sally
TTITLE6=Land Of 1000 Dances
TTITLE7=Funky Broadway
TTITLE8=634-5789 (Soulsville, USA)
TTITLE9=Funky Street
EXTD=
EXTT0=
EXTT1=
EXTT2=
EXTT3=
EXTT4=
EXTT5=
EXTT6=
EXTT7=
EXTT8=
EXTT9=
PLAYORDER=
